<?xml version="1.0" encoding="UTF-8"?>
<svg width="111px" height="36px" viewBox="0 0 111 36" version="1.1" xmlns="http://www.w3.org/2000/svg" xmlns:xlink="http://www.w3.org/1999/xlink">
    <!-- Generator: Sketch 52.1 (67048) - http://www.bohemiancoding.com/sketch -->
    <title>kompis_logo</title>
    <desc>Created with Sketch.</desc>
    <g id="Finals" stroke="none" stroke-width="1" fill="none" fill-rule="evenodd">
        <g id="Location-management-new" transform="translate(-132.000000, -36.000000)" fill="#FFFFFF" fill-rule="nonzero">
            <g id="kompis_logo" transform="translate(132.000000, 36.000000)">
                <polygon id="Shape" points="13.4858621 30.1208633 7.59137931 21.6388489 4.63137931 24.9669065 4.63137931 30.1079137 0 30.1079137 0 9.29784173 4.63137931 9.29784173 4.63137931 18.7510791 13.1541379 9.29784173 18.5127586 9.29784173 10.8065517 17.9870504 19.0358621 30.1208633 13.4858621 30.1208633"></polygon>
                <path d="M37.0637931,22.1179856 C37.0637931,27 33.67,30.3021583 28.6303448,30.3021583 C23.5651724,30.3021583 20.1586207,27 20.1586207,22.1179856 C20.1586207,17.2100719 23.5524138,13.9726619 28.6303448,13.9726619 C33.67,13.9726619 37.0637931,17.2100719 37.0637931,22.1179856 Z M24.7006897,22.1697842 C24.7006897,24.7856115 26.2827586,26.5726619 28.6303448,26.5726619 C30.9396552,26.5726619 32.56,24.7856115 32.56,22.1697842 C32.56,19.5539568 30.9524138,17.7669065 28.6303448,17.7669065 C26.2827586,17.7669065 24.7006897,19.5539568 24.7006897,22.1697842 Z" id="Shape"></path>
                <path d="M66.6127586,20.0589928 L66.6127586,30.1079137 L62.1344828,30.1079137 L62.1344828,21.3928058 C62.1344828,19.3467626 60.9606897,18.1165468 59.0851724,18.1165468 C56.9162069,18.142446 55.602069,19.8647482 55.602069,22.1956835 L55.602069,30.1079137 L51.1237931,30.1079137 L51.1237931,21.3928058 C51.1237931,19.3467626 49.95,18.1165468 48.1,18.1165468 C45.9055172,18.142446 44.5786207,19.8647482 44.5786207,22.1956835 L44.5786207,30.1079137 L40.062069,30.1079137 L40.062069,14.1151079 L44.5786207,14.1151079 L44.5786207,16.8863309 C45.6886207,14.9179856 47.5386207,13.9726619 49.9117241,13.9467626 C52.5782759,13.9467626 54.4793103,15.3194245 55.2448276,17.6374101 C56.2655172,15.1640288 58.2686207,13.9726619 60.9351724,13.9467626 C64.4055172,13.9338129 66.6127586,16.3165468 66.6127586,20.0589928 Z" id="Shape"></path>
                <path d="M87.5624138,22.2086331 C87.5624138,27.0517986 84.6662069,30.3021583 80.2389655,30.3021583 C78.0444828,30.3021583 76.3093103,29.4086331 75.1737931,27.8028777 L75.1737931,35.8964029 L70.6572414,35.8964029 L70.6572414,14.1151079 L75.1737931,14.1151079 L75.1737931,16.4589928 C76.2837931,14.8532374 78.0189655,13.9597122 80.1496552,13.9597122 C84.5641379,13.9726619 87.5624138,17.2618705 87.5624138,22.2086331 Z M82.982069,22.0532374 C82.982069,19.4892086 81.4,17.6503597 79.0906897,17.6503597 C76.7813793,17.6503597 75.1610345,19.4633094 75.1610345,22.0532374 C75.1610345,24.694964 76.7686207,26.4820144 79.0906897,26.4820144 C81.4127586,26.4820144 82.982069,24.6690647 82.982069,22.0532374 Z" id="Shape"></path>
                <polygon id="Shape" points="95.0644828 14.1151079 95.0644828 30.1208633 90.547931 30.1208633 90.547931 14.1151079"></polygon>
                <path d="M104.518621,17.2618705 C103.459655,17.2618705 102.706897,17.6244604 102.706897,18.4532374 C102.706897,20.8618705 111.025517,19.6446043 111,25.2906475 C111,28.5669065 108.154828,30.2892086 104.582414,30.2892086 C102.03069,30.2892086 99.5427586,29.5122302 97.7565517,28.0618705 L99.2237931,24.9669065 C100.869655,26.2489209 102.974828,26.9611511 104.697241,26.9611511 C105.845517,26.9611511 106.687586,26.5726619 106.687586,25.7179856 C106.687586,23.1539568 98.5093103,24.5266187 98.5093103,18.9064748 C98.5093103,15.6043165 101.29069,13.9079137 104.722759,13.9079137 C106.891724,13.9079137 109.124483,14.5683453 110.872414,15.694964 L109.315862,18.8158273 C107.606207,17.8316547 105.845517,17.2618705 104.518621,17.2618705 Z" id="Shape"></path>
                <path d="M92.9465517,12.6388489 L88.3534483,7.97697842 C87.5624138,7.17410072 87.5624138,5.87913669 88.3534483,5.08920863 C89.1444828,4.28633094 90.4203448,4.28633094 91.1986207,5.08920863 L92.7934483,6.70791367 L98.0117241,0.802877698 C98.7517241,-0.0388489209 100.027586,-0.103597122 100.856897,0.647482014 C101.686207,1.39856115 101.75,2.69352518 101.01,3.5352518 L92.9465517,12.6388489 Z" id="Shape"></path>
            </g>
        </g>
    </g>
</svg>