<?xml version="1.0" encoding="UTF-8"?>
<svg width="92px" height="72px" viewBox="0 0 92 72" version="1.1" xmlns="http://www.w3.org/2000/svg" xmlns:xlink="http://www.w3.org/1999/xlink">
    <!-- Generator: Sketch 51.2 (57519) - http://www.bohemiancoding.com/sketch -->
    <title>Group 7</title>
    <desc>Created with Sketch.</desc>
    <defs></defs>
    <g id="Page-1" stroke="none" stroke-width="1" fill="none" fill-rule="evenodd">
        <g id="Desktop-HD-Copy" transform="translate(-1069.000000, -1790.000000)" fill="#1D7571">
            <g id="Group-2" transform="translate(165.000000, 1739.000000)">
                <g id="Group-7" transform="translate(904.000000, 51.000000)">
                    <path d="M80.398,0.199 L11.60101,0.199 C5.499405,0.199 0.601006,5.0974 0.601006,11.199 L0.601006,60.699 C0.601006,66.8006 5.499405,71.699 11.60101,71.699 L80.40201,71.699 C86.50361,71.699 91.40201,66.8006 91.40201,60.699 L91.40201,22.699 L91.3981,11.199 C91.3981,5.199 86.4997,0.199 80.3981,0.199 L80.398,0.199 Z M87.398,60.801 C87.398,64.6994 84.2964,67.801 80.398,67.801 L11.60101,67.801 C7.70261,67.801 4.601006,64.6994 4.601006,60.801 L4.601006,22.801 L87.40201,22.801 L87.398,60.801 Z M87.398,18.699 L4.601006,18.699 L4.601006,11.199 C4.601006,7.3006 7.70261,4.199 11.60101,4.199 L80.40201,4.199 C84.30041,4.199 87.40201,7.3006 87.40201,11.199 L87.398,18.699 Z" id="Fill-1"></path>
                    <path d="M16.801,11.699 C16.801,18.4998 6.602,18.4998 6.602,11.699 C6.602,4.8982 16.801,4.8982 16.801,11.699" id="Fill-2"></path>
                    <path d="M30.699,11.699 C30.699,18.4998 20.5,18.4998 20.5,11.699 C20.5,4.8982 30.699,4.8982 30.699,11.699" id="Fill-3"></path>
                    <path d="M44.602,11.699 C44.602,18.4998 34.399,18.4998 34.399,11.699 C34.399,4.8982 44.602,4.8982 44.602,11.699" id="Fill-4"></path>
                    <path d="M14.898,57.898 C15.29644,58.29644 15.79644,58.49956 16.2964,58.49956 C16.79636,58.49956 17.2964,58.30034 17.6948,57.898 L29.2968,46.296 C30.09758,45.49522 30.09758,44.296 29.2968,43.4952 L17.6988,31.8972 C16.89802,31.09642 15.6988,31.09642 14.898,31.8972 C14.09722,32.69798 14.09722,33.8972 14.898,34.698 L25,44.897 L14.898,55.1 C14.10112,55.89688 14.10112,57.1 14.898,57.8969 L14.898,57.898 Z" id="Fill-5"></path>
                    <path d="M36.801,46.898 L55.102,46.898 C56.2036,46.898 57.102,45.99956 57.102,44.898 C57.102,43.7964 56.20356,42.898 55.102,42.898 L36.801,42.898 C35.6994,42.898 34.801,43.79644 34.801,44.898 C34.801,45.9996 35.69944,46.898 36.801,46.898 Z" id="Fill-6"></path>
                </g>
            </g>
        </g>
    </g>
</svg>