<?xml version="1.0" encoding="UTF-8"?>
<svg width="93px" height="80px" viewBox="0 0 93 80" version="1.1" xmlns="http://www.w3.org/2000/svg" xmlns:xlink="http://www.w3.org/1999/xlink">
    <!-- Generator: Sketch 51.2 (57519) - http://www.bohemiancoding.com/sketch -->
    <title>chat</title>
    <desc>Created with Sketch.</desc>
    <defs></defs>
    <g id="Page-1" stroke="none" stroke-width="1" fill="none" fill-rule="evenodd">
        <g id="Desktop-HD-Copy" transform="translate(-674.000000, -759.000000)" fill="#1D7571">
            <g id="chat" transform="translate(674.000000, 759.000000)">
                <path d="M4.38341269,0 C1.93476902,0 0,1.86352129 0,4.22199384 L0,64.1019023 C0,66.4603749 1.93476902,68.3238962 4.38341269,68.3238962 L11.8655514,68.3238962 L19.9926132,78.510152 L20.2495763,78.7576525 C21.1514625,79.6263267 22.1843453,80 23.343143,80 C24.5019923,80 25.5348494,79.6263267 26.4367097,78.7576525 L34.6896604,68.323921 L88.6065136,68.323921 C91.0551573,68.323921 92.9899263,66.4603997 92.9899263,64.1019272 L93,4.22201868 C93,1.86354614 91.065231,2.48469505e-05 88.6165873,2.48469505e-05 L4.38341269,0 Z M87.7100448,63.3597239 L34.1814353,63.3597239 C33.022586,63.3597239 31.8586806,63.8547248 31.0878686,64.6020714 L23.2177442,74.5408516 L15.6097165,64.8495471 L15.3477229,64.6020466 C14.5718032,63.8547 13.4129539,63.3596991 12.2541563,63.3596991 L5.16000318,63.3596991 L5.16000318,4.96936526 L87.710148,4.96936526 L87.7100448,63.3597239 Z" id="Fill-1"></path>
                <path d="M21.5714286,24 L70.4285714,24 C71.8449143,24 73,22.87695 73,21.5 C73,20.12305 71.8448629,19 70.4285714,19 L21.5714286,19 C20.1550857,19 19,20.12305 19,21.5 C19,22.87695 20.1551371,24 21.5714286,24 Z" id="Fill-2"></path>
                <path d="M21.5714286,37 L70.4285714,37 C71.8449143,37 73,35.87695 73,34.5 C73,33.12305 71.8448629,32 70.4285714,32 L21.5714286,32 C20.1550857,32 19,33.12305 19,34.5 C19,35.87695 20.1551371,37 21.5714286,37 Z" id="Fill-3"></path>
                <path d="M21.5833333,51 L47.4166667,51 C48.8395667,51 50,49.87695 50,48.5 C50,47.12305 48.839515,46 47.4166667,46 L21.5833333,46 C20.1604333,46 19,47.12305 19,48.5 C19,49.87695 20.160485,51 21.5833333,51 Z" id="Fill-4"></path>
            </g>
        </g>
    </g>
</svg>