<?xml version="1.0" encoding="UTF-8"?>
<svg width="75px" height="100px" viewBox="0 0 75 100" version="1.1" xmlns="http://www.w3.org/2000/svg" xmlns:xlink="http://www.w3.org/1999/xlink">
    <!-- Generator: Sketch 51.2 (57519) - http://www.bohemiancoding.com/sketch -->
    <title>clipboard</title>
    <desc>Created with Sketch.</desc>
    <defs></defs>
    <g id="Page-1" stroke="none" stroke-width="1" fill="none" fill-rule="evenodd">
        <g id="Desktop-HD-Copy" transform="translate(-318.000000, -748.000000)" fill="#1D7571">
            <path d="M341.842469,755.405738 L345.801852,755.405738 C346.261421,753.683169 347.17665,752.144285 348.406044,750.921678 C350.220773,749.117115 352.730745,748 355.49995,748 C358.261311,748 360.767361,749.121015 362.589934,750.929478 L362.593865,750.925568 C363.82336,752.148175 364.734597,753.687058 365.198058,755.409628 L390.415416,755.409628 C391.841296,755.409628 393,756.56184 393,757.983632 L393,845.425995 C393,846.847787 391.841296,848 390.415416,848 L320.588506,848 C319.158704,848 318,846.847787 318,845.425995 L318,757.983632 C318,756.56184 319.158704,755.409628 320.588506,755.409628 L341.846994,755.409628 L341.842469,755.405738 Z M335.455571,833.204833 C334.025769,833.204833 332.867065,832.05262 332.867065,830.634728 C332.867065,829.212936 334.025769,828.060723 335.455571,828.060723 L375.544127,828.060723 C376.973929,828.060723 378.128711,829.212936 378.128711,830.634728 C378.128711,832.05262 376.970008,833.204833 375.544127,833.204833 L335.455571,833.204833 Z M335.455571,819.498873 C334.025769,819.498873 332.867065,818.346661 332.867065,816.928768 C332.867065,815.506976 334.025769,814.354764 335.455571,814.354764 L375.544127,814.354764 C376.973929,814.354764 378.128711,815.506976 378.128711,816.928768 C378.128711,818.346661 376.970008,819.498873 375.544127,819.498873 L335.455571,819.498873 Z M340.263342,791.855971 C339.175329,790.94588 339.037769,789.332763 339.949105,788.246845 C340.864323,787.164927 342.490451,787.024238 343.578564,787.934369 L353.17852,795.976759 L367.107501,779.619 C368.026641,778.537082 369.65679,778.400293 370.744803,779.318243 C371.832816,780.232234 371.966354,781.85325 371.047254,782.935168 L355.461115,801.242779 L355.457183,801.238869 C354.541965,802.316887 352.91976,802.453577 351.835568,801.543536 L340.267636,791.852882 L340.263342,791.855971 Z M371.738294,760.553347 L371.738294,767.857493 C371.738294,769.279285 370.57959,770.427598 369.15371,770.427598 L341.842771,770.427598 C340.412969,770.427598 339.258187,769.275385 339.258187,767.857493 L339.258187,760.553347 L323.173291,760.553347 L323.173291,842.852101 L387.831636,842.852101 L387.831636,760.553347 L371.738294,760.553347 Z M348.048367,760.553347 L344.426752,760.553347 L344.426752,765.283488 L366.565103,765.283488 L366.565103,760.553347 L362.943488,760.553347 C361.513686,760.553347 360.354982,759.401135 360.354982,757.983242 C360.354982,756.647444 359.808994,755.436536 358.933023,754.565502 L358.933023,754.557692 C358.061014,753.690568 356.843374,753.151599 355.496028,753.151599 C354.152704,753.151599 352.934974,753.694528 352.059033,754.565592 C351.17917,755.440525 350.637074,756.647434 350.637074,757.983332 C350.637074,759.401225 349.47837,760.553437 348.048568,760.553437 L348.048367,760.553347 Z" id="clipboard"></path>
        </g>
    </g>
</svg>