<?xml version="1.0" encoding="UTF-8"?>
<svg width="101px" height="82px" viewBox="0 0 101 82" version="1.1" xmlns="http://www.w3.org/2000/svg" xmlns:xlink="http://www.w3.org/1999/xlink">
    <!-- Generator: Sketch 51.2 (57519) - http://www.bohemiancoding.com/sketch -->
    <title>devices</title>
    <desc>Created with Sketch.</desc>
    <defs></defs>
    <g id="Page-1" stroke="none" stroke-width="1" fill="none" fill-rule="evenodd">
        <g id="Desktop-HD-Copy" transform="translate(-1035.000000, -757.000000)" fill="#1D7571">
            <g id="devices" transform="translate(1035.000000, 757.000000)">
                <path d="M37.5,81.75 L12.5,81.75 C5.5977,81.75 0,76.1523 0,69.25 L0,28.625 C0,21.7227 5.5977,16.125 12.5,16.125 L37.5,16.125 C40.8164,16.125 43.9961,17.4414 46.3398,19.7852 C48.6835,22.129 50,25.3086 50,28.625 L50,69.25 C50,72.5664 48.6836,75.7461 46.3398,78.0898 C43.996,80.4335 40.8164,81.75 37.5,81.75 Z M12.5,22.375 C9.0469,22.375 6.25,25.1719 6.25,28.625 L6.25,69.25 C6.25,70.9062 6.91016,72.4961 8.082,73.668 C9.25384,74.8399 10.8437,75.5 12.5,75.5 L37.5,75.5 C39.1562,75.5 40.7461,74.83984 41.918,73.668 C43.0899,72.49616 43.75,70.9063 43.75,69.25 L43.75,28.625 C43.75,26.9688 43.08984,25.3789 41.918,24.207 C40.74616,23.0351 39.1563,22.375 37.5,22.375 L12.5,22.375 Z" id="Fill-1"></path>
                <path d="M25,72.375 C24.79688,72.39844 24.59375,72.39844 24.39062,72.375 C24.1875,72.33594 23.98828,72.27734 23.79687,72.20312 C23.61328,72.12109 23.43359,72.01953 23.26562,71.90624 C23.09374,71.79686 22.93359,71.66796 22.79687,71.51562 C22.64453,71.3789 22.51562,71.21874 22.40625,71.04687 C22.28516,70.8789 22.18359,70.69531 22.10937,70.49999 C22.02734,70.3164 21.96875,70.12108 21.93749,69.92187 C21.88671,69.70312 21.86718,69.47656 21.87499,69.24999 C21.8789,68.42187 22.21093,67.62889 22.79687,67.04689 C22.93359,66.89455 23.09375,66.76564 23.26562,66.65627 C23.43359,66.54299 23.61328,66.44143 23.79687,66.35939 C23.98828,66.27736 24.18749,66.22267 24.39062,66.18751 C24.79296,66.10939 25.20703,66.10939 25.60942,66.18751 C25.81254,66.22267 26.01176,66.28126 26.20317,66.35939 C26.38676,66.44142 26.56645,66.54298 26.73442,66.65627 C26.9063,66.76565 27.06645,66.89455 27.20317,67.04689 C27.78911,67.62892 28.12114,68.42189 28.12505,69.24999 C28.14849,69.45311 28.14849,69.65624 28.12505,69.85937 C28.08989,70.05859 28.03521,70.2539 27.95317,70.43749 C27.87114,70.6289 27.77348,70.81249 27.65629,70.98437 C27.42582,71.32031 27.13285,71.61328 26.79691,71.84375 C26.62894,71.95703 26.45316,72.05859 26.26566,72.14063 C26.07035,72.21094 25.87504,72.26954 25.67191,72.31251 C25.45316,72.35939 25.2266,72.38282 25.00003,72.37501 L25,72.375 Z" id="Fill-2"></path>
                <path d="M88.281,75.5 L46.875,75.5 L46.875,69.25 L88.281,69.25 C89.9372,69.25 91.5271,68.58984 92.699,67.418 C93.8709,66.24616 94.531,64.6563 94.531,63 L46.875,63 L46.875,56.75 L97.656,56.75 C98.48412,56.75 99.281,57.07812 99.8669,57.66406 C100.4528,58.25 100.781,59.04686 100.781,59.87496 L100.781,62.99996 C100.781,66.31636 99.46456,69.49606 97.12076,71.83976 C94.77696,74.18346 91.59736,75.49996 88.28096,75.49996 L88.281,75.5 Z" id="Fill-3"></path>
                <path d="M94.531,59.875 L88.281,59.875 L88.281,13 C88.281,11.3438 87.62084,9.7539 86.449,8.582 C85.27716,7.4101 83.6873,6.75 82.031,6.75 L19.531,6.75 C16.0779,6.75 13.281,9.5469 13.281,13 L13.281,19.25 L7.030998,19.25 L7.030998,13 C7.030998,6.0977 12.6287,0.5 19.531,0.5 L82.031,0.5 C85.3474,0.5 88.5271,1.8164 90.8708,4.1602 C93.2145,6.504 94.531,9.6836 94.531,13 L94.531,59.875 Z" id="Fill-4"></path>
            </g>
        </g>
    </g>
</svg>