<svg xmlns="http://www.w3.org/2000/svg" width="13" height="14" viewBox="0 0 13 14">
    <path fill="#FF8181" fill-rule="nonzero" d="M6.144 11.644a.322.322 0 0 0 .323-.323V4.528a.323.323 0 1 0-.646 0v6.792a.323.323 0 0 0 .323.324zm-1.618 0a.322.322 0 0 0 .323-.323l-.322-6.793a.323.323 0 0 0-.646 0l.323 6.792a.323.323 0 0 0 .323.324zm7.44-9.38h-2.91v-.97C9.056.579 8.477 0 7.763 0H4.527c-.715 0-1.294.58-1.294 1.294v.97H.323a.323.323 0 1 0 0 .645H1.68l.907 9.38c0 .714.58 1.294 1.294 1.294H8.41c.715 0 1.294-.58 1.294-1.294l.906-9.378h1.357a.324.324 0 0 0 0-.647zm-8.085-.97a.647.647 0 0 1 .647-.648h3.235a.647.647 0 0 1 .646.648v.97H3.881v-.97zM9.056 12.29a.647.647 0 0 1-.648.646H3.88a.647.647 0 0 1-.647-.647l-.908-9.38h7.637l-.907 9.38zm-1.293-.647a.322.322 0 0 0 .322-.323l.323-6.793a.323.323 0 1 0-.646 0l-.323 6.792a.322.322 0 0 0 .324.324z"/>
</svg>
