<?xml version="1.0" encoding="UTF-8"?>
<svg width="167px" height="54px" viewBox="0 0 167 54" version="1.1" xmlns="http://www.w3.org/2000/svg" xmlns:xlink="http://www.w3.org/1999/xlink">
    <!-- Generator: Sketch 51.2 (57519) - http://www.bohemiancoding.com/sketch -->
    <title>logokompis_logo</title>
    <desc>Created with Sketch.</desc>
    <defs></defs>
    <g id="Page-1" stroke="none" stroke-width="1" fill="none" fill-rule="evenodd">
        <g id="Desktop-HD-Copy" transform="translate(-57.000000, -75.000000)" fill="#FFFFFF" fill-rule="nonzero">
            <g id="Logo_Main" transform="translate(57.000000, 75.000000)">
                <g id="kompis_logo">
                    <polygon id="Shape" points="20.2895402 45.181295 11.4212644 32.4582734 6.96793103 37.4503597 6.96793103 45.1618705 0 45.1618705 0 13.9467626 6.96793103 13.9467626 6.96793103 28.1266187 19.7904598 13.9467626 27.8525287 13.9467626 16.2585057 26.9805755 28.6395402 45.181295 20.2895402 45.181295"></polygon>
                    <path d="M55.7626437,33.1769784 C55.7626437,40.5 50.6566667,45.4532374 43.0744828,45.4532374 C35.453908,45.4532374 30.3287356,40.5 30.3287356,33.1769784 C30.3287356,25.8151079 35.4347126,20.9589928 43.0744828,20.9589928 C50.6566667,20.9589928 55.7626437,25.8151079 55.7626437,33.1769784 Z M37.1622989,33.2546763 C37.1622989,37.1784173 39.5425287,39.8589928 43.0744828,39.8589928 C46.5488506,39.8589928 48.9866667,37.1784173 48.9866667,33.2546763 C48.9866667,29.3309353 46.568046,26.6503597 43.0744828,26.6503597 C39.5425287,26.6503597 37.1622989,29.3309353 37.1622989,33.2546763 Z" id="Shape"></path>
                    <path d="M100.219195,30.0884892 L100.219195,45.1618705 L93.4816092,45.1618705 L93.4816092,32.0892086 C93.4816092,29.0201439 91.7156322,27.1748201 88.893908,27.1748201 C85.6306897,27.2136691 83.6535632,29.7971223 83.6535632,33.2935252 L83.6535632,45.1618705 L76.915977,45.1618705 L76.915977,32.0892086 C76.915977,29.0201439 75.15,27.1748201 72.3666667,27.1748201 C69.0650575,27.2136691 67.0687356,29.7971223 67.0687356,33.2935252 L67.0687356,45.1618705 L60.2735632,45.1618705 L60.2735632,21.1726619 L67.0687356,21.1726619 L67.0687356,25.3294964 C68.7387356,22.3769784 71.522069,20.9589928 75.0924138,20.9201439 C79.1042529,20.9201439 81.9643678,22.9791367 83.116092,26.4561151 C84.6517241,22.7460432 87.6654023,20.9589928 91.6772414,20.9201439 C96.8983908,20.9007194 100.219195,24.4748201 100.219195,30.0884892 Z" id="Shape"></path>
                    <path d="M131.738046,33.3129496 C131.738046,40.5776978 127.38069,45.4532374 120.719885,45.4532374 C117.418276,45.4532374 114.807701,44.1129496 113.09931,41.7043165 L113.09931,53.8446043 L106.304138,53.8446043 L106.304138,21.1726619 L113.09931,21.1726619 L113.09931,24.6884892 C114.76931,22.2798561 117.379885,20.9395683 120.585517,20.9395683 C127.227126,20.9589928 131.738046,25.8928058 131.738046,33.3129496 Z M124.846897,33.0798561 C124.846897,29.2338129 122.466667,26.4755396 118.992299,26.4755396 C115.517931,26.4755396 113.080115,29.194964 113.080115,33.0798561 C113.080115,37.042446 115.498736,39.7230216 118.992299,39.7230216 C122.485862,39.7230216 124.846897,37.0035971 124.846897,33.0798561 Z" id="Shape"></path>
                    <polygon id="Shape" points="143.024943 21.1726619 143.024943 45.181295 136.22977 45.181295 136.22977 21.1726619"></polygon>
                    <path d="M157.248736,25.8928058 C155.655517,25.8928058 154.522989,26.4366906 154.522989,27.6798561 C154.522989,31.2928058 167.038391,29.4669065 167,37.9359712 C167,42.8503597 162.719425,45.4338129 157.344713,45.4338129 C153.505632,45.4338129 149.762529,44.2683453 147.075172,42.0928058 L149.282644,37.4503597 C151.758851,39.3733813 154.926092,40.4417266 157.517471,40.4417266 C159.245057,40.4417266 160.511954,39.8589928 160.511954,38.5769784 C160.511954,34.7309353 148.207701,36.7899281 148.207701,28.3597122 C148.207701,23.4064748 152.392299,20.8618705 157.555862,20.8618705 C160.81908,20.8618705 164.178276,21.852518 166.808046,23.542446 L164.466207,28.223741 C161.894023,26.747482 159.245057,25.8928058 157.248736,25.8928058 Z" id="Shape"></path>
                    <path d="M139.838506,18.9582734 L132.928161,11.9654676 C131.738046,10.7611511 131.738046,8.81870504 132.928161,7.63381295 C134.118276,6.4294964 136.037816,6.4294964 137.208736,7.63381295 L139.608161,10.0618705 L147.45908,1.20431655 C148.572414,-0.0582733813 150.491954,-0.155395683 151.739655,0.971223022 C152.987356,2.09784173 153.083333,4.04028777 151.97,5.3028777 L139.838506,18.9582734 Z" id="Shape"></path>
                </g>
            </g>
        </g>
    </g>
</svg>
