<?xml version="1.0" encoding="UTF-8"?>
<svg width="110px" height="61px" viewBox="0 0 110 61" version="1.1" xmlns="http://www.w3.org/2000/svg" xmlns:xlink="http://www.w3.org/1999/xlink">
    <!-- Generator: Sketch 51.2 (57519) - http://www.bohemiancoding.com/sketch -->
    <title>Group 7</title>
    <desc>Created with Sketch.</desc>
    <defs></defs>
    <g id="Page-1" stroke="none" stroke-width="1" fill="none" fill-rule="evenodd">
        <g id="Desktop-HD-Copy" transform="translate(-666.000000, -1784.000000)" fill="#1D7571">
            <g id="Group-2" transform="translate(165.000000, 1739.000000)">
                <g id="Group-7" transform="translate(501.000000, 45.000000)">
                    <path d="M21.5,40 C28.9447093,40 35,33.9455495 35,26.4975895 C35,19.0542094 28.9444683,13 21.5,13 C14.0552907,13 8,19.0544505 8,26.5024105 C8,33.9457906 14.0555317,40 21.5,40 Z M21.5,18.6815463 C25.8132735,18.6815463 29.3214171,22.1890635 29.3214171,26.5015668 C29.3214171,30.8140702 25.8132735,34.3215874 21.5,34.3215874 C17.1867265,34.3215874 13.6785829,30.8140702 13.6785829,26.5015668 C13.6785829,22.1890635 17.1867265,18.6815463 21.5,18.6815463 Z" id="Fill-1"></path>
                    <path d="M5.83956887,59.8563418 C5.83956887,54.1775808 10.6868871,49.5589339 16.6468061,49.5589339 L26.86381,49.5589339 C27.168574,49.5589339 27.4733503,49.5727636 27.7732844,49.595809 C28.6198591,49.6649454 29.456799,49.3929902 30.0711815,48.8583076 C30.6710496,48.3328408 31,47.6137592 31,46.8394417 C31,45.419781 29.858321,44.2028446 28.4021565,44.0691504 C27.8942042,44.0230595 27.381422,44.0000022 26.8589554,44.0000022 L16.6419514,44.0000022 C7.46993025,43.9954002 0,51.1122299 0,59.8568728 L0,61 L5.83892489,61 L5.83956887,59.8563418 Z" id="Fill-2"></path>
                    <path d="M32,61 L37.7915775,61 L37.7915775,53.8816515 C37.7915775,47.2088206 43.2281524,41.7814278 49.9122726,41.7814278 L61.0877274,41.7814278 C67.7718476,41.7814278 73.2084225,47.2088206 73.2084225,53.8816515 L73.2084225,61 L79,61 L79,53.8816515 C79,47.8458875 75.9625788,42.255641 70.8811292,38.9268287 C67.9589302,37.0107228 64.5712971,36 61.0923953,36 L49.9169404,36 C44.3844288,36 39.2453681,38.5149119 35.8151101,42.897981 C33.3248105,46.078778 32.0099499,49.8773888 32.0099499,53.8820194 L32,61 Z" id="Fill-3"></path>
                    <path d="M93.6376197,44 L83.5948313,44 C83.3142784,44 83.0337255,44.0092136 82.7579323,44.02304 C81.2125602,44.1059863 80,45.327224 80,46.8110798 C80,47.5760595 80.3281009,48.3133393 80.8987139,48.8340692 C81.4740866,49.3594117 82.2302051,49.6220889 83.0100124,49.5806098 C83.2049764,49.5667834 83.3999282,49.5621707 83.5948922,49.5621707 L93.6376805,49.5621707 C99.4959738,49.5621707 104.260638,54.1797253 104.260638,59.8571432 L104.260638,61 L110,61 L110,59.8571432 C110,51.1151583 102.658174,44.0004837 93.6381675,44.0004837 L93.6376197,44 Z" id="Fill-4"></path>
                    <path d="M88.5,40 C95.9420512,40 102,33.9455495 102,26.4975895 C102,19.0542094 95.9466304,13 88.5,13 C81.0532491,13 75,19.0544505 75,26.5024105 C75,33.9457906 81.0580693,40 88.5,40 Z M88.5,18.6815463 C92.8117335,18.6815463 96.3186245,22.1890635 96.3186245,26.5015668 C96.3186245,30.8140702 92.8117335,34.3215874 88.5,34.3215874 C84.1882665,34.3215874 80.6813755,30.8140702 80.6813755,26.5015668 C80.6813755,22.1890635 84.1882665,18.6815463 88.5,18.6815463 Z" id="Fill-5"></path>
                    <path d="M55,34 C64.3741306,34 72,26.3743719 72,17 C72,7.62586941 64.3743719,0 55,0 C45.6256281,0 38,7.62562811 38,17 C38,26.3694251 45.6256281,34 55,34 Z M55,5.68396026 C61.2400497,5.68396026 66.3159191,10.7598297 66.3159191,16.9998793 C66.3159191,23.239929 61.2400497,28.3157984 55,28.3157984 C48.7599503,28.3157984 43.6840809,23.239929 43.6840809,16.9998793 C43.6840809,10.7598297 48.7599503,5.68396026 55,5.68396026 Z" id="Fill-6"></path>
                </g>
            </g>
        </g>
    </g>
</svg>