<?xml version="1.0" encoding="UTF-8"?>
<svg width="47px" height="61px" viewBox="0 0 47 61" version="1.1" xmlns="http://www.w3.org/2000/svg" xmlns:xlink="http://www.w3.org/1999/xlink">
    <!-- Generator: Sketch 51.2 (57519) - http://www.bohemiancoding.com/sketch -->
    <title>Fill 6</title>
    <desc>Created with Sketch.</desc>
    <defs></defs>
    <g id="Page-1" stroke="none" stroke-width="1" fill="none" fill-rule="evenodd">
        <g id="Desktop-HD-Copy" transform="translate(-302.000000, -1790.000000)" fill="#1D7571">
            <g id="Group-2" transform="translate(165.000000, 1739.000000)">
                <path d="M160.5,84 C170.42555,84 178.5,76.5986551 178.5,67.5 C178.5,58.4015791 170.425806,51 160.5,51 C150.574194,51 142.5,58.4013449 142.5,67.5 C142.5,76.5938538 150.574194,84 160.5,84 Z M161.045455,57 C167.662734,57 173.045455,61.9341607 173.045455,68 C173.045455,74.0658393 167.662734,79 161.045455,79 C154.428175,79 149.045455,74.0658393 149.045455,68 C149.045455,61.9341607 154.428175,57 161.045455,57 Z M137,112 L137.00995,104.882019 C137.00995,100.877389 138.32481,97.078778 140.81511,93.897981 C144.245368,89.5149119 149.384429,87 154.91694,87 L166.092395,87 C169.571297,87 172.95893,88.0107228 175.881129,89.9268287 C180.962579,93.255641 184,98.8458875 184,104.881651 L184,112 L178.208423,112 L178.208423,104.881651 C178.208423,98.2088206 172.771848,92.7814278 166.087727,92.7814278 L154.912273,92.7814278 C148.228152,92.7814278 142.791577,98.2088206 142.791577,104.881651 L142.791577,112 L137,112 Z" id="Fill-6"></path>
            </g>
        </g>
    </g>
</svg>