<?xml version="1.0" encoding="UTF-8"?>
<svg width="26px" height="26px" viewBox="0 0 26 26" version="1.1" xmlns="http://www.w3.org/2000/svg" xmlns:xlink="http://www.w3.org/1999/xlink">
    <!-- Generator: Sketch 52.1 (67048) - http://www.bohemiancoding.com/sketch -->
    <title>Icon_calendar_green</title>
    <desc>Created with Sketch.</desc>
    <g id="Symbols" stroke="none" stroke-width="1" fill="none" fill-rule="evenodd">
        <g id="Button_Round_Calendar" transform="translate(-15.000000, -15.000000)">
            <g id="Icon_calendar_green" transform="translate(15.000000, 15.000000)">
                <g id="Group">
                    <polygon id="Rectangle-2" fill="#14514E" points="9.56632653 8.37053571 15.5452806 8.37053571 15.5452806 11.9579082 9.56632653 11.9579082"></polygon>
                    <polygon id="Rectangle-2" fill="#14514E" points="16.7410714 8.37053571 22.7200255 8.37053571 22.7200255 11.9579082 16.7410714 11.9579082"></polygon>
                    <polygon id="Rectangle-2" fill="#14514E" points="2.39158163 13.153699 8.37053571 13.153699 8.37053571 16.7410714 2.39158163 16.7410714"></polygon>
                    <polygon id="Rectangle-2" fill="#14514E" points="9.56632653 13.153699 15.5452806 13.153699 15.5452806 16.7410714 9.56632653 16.7410714"></polygon>
                    <polygon id="Rectangle-2" fill="#14514E" points="16.7410714 13.153699 22.7200255 13.153699 22.7200255 16.7410714 16.7410714 16.7410714"></polygon>
                    <polygon id="Rectangle-2" fill="#14514E" points="2.39158163 17.9368622 8.37053571 17.9368622 8.37053571 21.5242347 2.39158163 21.5242347"></polygon>
                    <polygon id="Rectangle-2" fill="#14514E" points="9.56632653 17.9368622 15.5452806 17.9368622 15.5452806 21.5242347 9.56632653 21.5242347"></polygon>
                    <path d="M1.6875,2.67283163 C0.910849571,2.67283163 0.28125,3.3024312 0.28125,4.07908163 L0.28125,23.4241071 C0.28125,24.2007576 0.910849571,24.8303571 1.6875,24.8303571 L23.4241071,24.8303571 C24.2007576,24.8303571 24.8303571,24.2007576 24.8303571,23.4241071 L24.8303571,4.07908163 C24.8303571,3.3024312 24.2007576,2.67283163 23.4241071,2.67283163 L1.6875,2.67283163 Z" id="Rectangle" stroke="#14514E" stroke-width="0.5625"></path>
                    <rect id="Rectangle-3" fill="#14514E" x="3.58737245" y="0" width="1.19579082" height="4.78316327" rx="0.597895408"></rect>
                    <path d="M20.8909439,0 L20.9617347,0 C21.2723949,-5.70673477e-17 21.5242347,0.251839828 21.5242347,0.5625 L21.5242347,4.22066327 C21.5242347,4.53132344 21.2723949,4.78316327 20.9617347,4.78316327 L20.8909439,4.78316327 C20.5802837,4.78316327 20.3284439,4.53132344 20.3284439,4.22066327 L20.3284439,0.5625 C20.3284439,0.251839828 20.5802837,5.70673477e-17 20.8909439,0 Z" id="Rectangle-3" fill="#14514E"></path>
                    <rect id="Rectangle-3" fill="#14514E" x="8.37053571" y="0" width="1.19579082" height="4.78316327" rx="0.597895408"></rect>
                    <path d="M16.1077806,0 L16.1785714,0 C16.4892316,-5.70673477e-17 16.7410714,0.251839828 16.7410714,0.5625 L16.7410714,4.22066327 C16.7410714,4.53132344 16.4892316,4.78316327 16.1785714,4.78316327 L16.1077806,4.78316327 C15.7971204,4.78316327 15.5452806,4.53132344 15.5452806,4.22066327 L15.5452806,0.5625 C15.5452806,0.251839828 15.7971204,5.70673477e-17 16.1077806,0 Z" id="Rectangle-3" fill="#14514E"></path>
                </g>
            </g>
        </g>
    </g>
</svg>