<svg xmlns="http://www.w3.org/2000/svg" width="37" height="31" viewBox="0 0 37 31">
    <g fill="#707070" fill-rule="nonzero">
        <path d="M13.756 0h9.937a.931.931 0 0 1 .817.48c.098.16.167.336.204.52l1.122 5.087.204.959H11.385l.204-.96 1.138-5.085a1.46 1.46 0 0 1 .204-.521.932.932 0 0 1 .825-.48zm9.53 1.564H14.16l-.879 3.897h10.88l-.877-3.897zM18.651 10.656c3.456.01 6.426 2.509 7.094 5.971.667 3.463-1.152 6.925-4.347 8.272-3.194 1.346-6.876.202-8.794-2.733-1.919-2.936-1.54-6.846.903-9.342a7.245 7.245 0 0 1 5.144-2.168zm4.042 3.273a5.678 5.678 0 0 0-7.283-.758c-2.293 1.555-3.19 4.549-2.142 7.148 1.05 2.6 3.75 4.08 6.451 3.533 2.701-.545 4.647-2.964 4.647-5.775a5.803 5.803 0 0 0-1.673-4.148z"/>
        <path d="M1.735 5.813h33.457c.956.004 1.73.795 1.735 1.771v21.47c-.004.977-.779 1.767-1.735 1.772H1.735C.78 30.82.005 30.03 0 29.054V7.584c-.001-.47.183-.92.51-1.25a1.784 1.784 0 0 1 1.225-.521zm33.457 1.563H1.735a.212.212 0 0 0-.204.208v21.47a.212.212 0 0 0 .204.208h33.457a.212.212 0 0 0 .204-.208V7.584a.212.212 0 0 0-.204-.208z"/>
    </g>
</svg>
