<?xml version="1.0" encoding="UTF-8"?>
<svg width="37px" height="31px" viewBox="0 0 37 31" version="1.1" xmlns="http://www.w3.org/2000/svg" xmlns:xlink="http://www.w3.org/1999/xlink">
    <!-- Generator: Sketch 52.3 (67297) - http://www.bohemiancoding.com/sketch -->
    <title>Icon-Camera-Gray</title>
    <desc>Created with Sketch.</desc>
    <g id="Page-1" stroke="none" stroke-width="1" fill="none" fill-rule="evenodd">
        <g id="Icon-Camera-Gray" fill="#1D7571" fill-rule="nonzero">
            <path d="M13.756,4.99600361e-16 L23.693,4.99600361e-16 C24.0324788,-0.000922155352 24.3455485,0.183011093 24.51,0.48 C24.608,0.64 24.677,0.816 24.714,1 L25.836,6.087 L26.04,7.046 L11.385,7.046 L11.589,6.086 L12.727,1.001 C12.7607758,0.815805733 12.8300476,0.638890969 12.931,0.48 C13.0969884,0.180639624 13.4137201,-0.00364059841 13.756,4.99600361e-16 Z M23.286,1.564 L14.16,1.564 L13.281,5.461 L24.161,5.461 L23.284,1.564 L23.286,1.564 Z M18.651,10.656 C22.107,10.666 25.077,13.165 25.745,16.627 C26.412,20.09 24.593,23.552 21.398,24.899 C18.204,26.245 14.522,25.101 12.604,22.166 C10.685,19.23 11.064,15.32 13.507,12.824 C14.863257,11.4432594 16.7155841,10.6625741 18.651,10.656 Z M22.693,13.929 C20.7742529,11.9356521 17.6981048,11.6154928 15.41,13.171 C13.117,14.726 12.22,17.72 13.268,20.319 C14.318,22.919 17.018,24.399 19.719,23.852 C22.42,23.307 24.366,20.888 24.366,18.077 C24.3849879,16.5263325 23.7825164,15.0325778 22.693,13.929 Z" id="Shape"></path>
            <path d="M1.735,5.813 L35.192,5.813 C36.148,5.817 36.922,6.608 36.927,7.584 L36.927,29.054 C36.923,30.031 36.148,30.821 35.192,30.826 L1.735,30.826 C0.78,30.82 0.005,30.03 -6.60678923e-16,29.054 L-6.60678923e-16,7.584 C-0.001,7.114 0.183,6.664 0.51,6.334 C0.835818894,6.0087863 1.2747404,5.8221103 1.735,5.813 Z M35.192,7.376 L1.735,7.376 C1.62258387,7.38022656 1.53304313,7.47152299 1.531,7.584 L1.531,29.054 C1.53304313,29.166477 1.62258387,29.2577734 1.735,29.262 L35.192,29.262 C35.3044161,29.2577734 35.3939569,29.166477 35.396,29.054 L35.396,7.584 C35.3939569,7.47152299 35.3044161,7.38022656 35.192,7.376 Z" id="Shape"></path>
        </g>
    </g>
</svg>