<?xml version="1.0" encoding="UTF-8"?>
<svg width="30px" height="29px" viewBox="0 0 30 29" version="1.1" xmlns="http://www.w3.org/2000/svg" xmlns:xlink="http://www.w3.org/1999/xlink">
    <!-- Generator: Sketch 52.1 (67048) - http://www.bohemiancoding.com/sketch -->
    <title>Group 3</title>
    <desc>Created with Sketch.</desc>
    <g id="Sketches" stroke="none" stroke-width="1" fill="none" fill-rule="evenodd">
        <g id="Group-3" fill="#1D7571">
            <polygon id="Fill-1" points="19.4877273 11.3293333 25.7492045 11.3293333 25.7492045 13.4425702 19.4877273 13.4425702"></polygon>
            <path d="M23.6611364,7.1367619 L23.6611364,0.126702381 L6.33886364,0.126702381 L6.33886364,7.1367619 L0.111817159,7.1367619 L0.111817159,23.5880476 L6.33886364,23.5880476 L6.33886364,28.8367027 L23.6280682,28.8367027 L23.6267352,23.5894286 L29.8537807,23.5894286 L29.8537807,7.1367619 L23.6611364,7.1367619 Z M8.42556818,2.23990476 L21.5744318,2.23990476 L21.5744318,7.1367619 L8.42556818,7.1367619 L8.42556818,2.23990476 Z M21.5744318,26.75975 L8.42556818,26.75975 L8.42556818,20.453631 L21.5744318,20.453631 L21.5744318,26.75975 Z M27.8014773,21.5097143 L23.6611364,21.5097143 L23.6611364,18.3742619 L6.33886364,18.3742619 L6.33886364,21.5097143 L2.19852273,21.5097143 L2.19852273,9.251 L27.8014773,9.251 L27.8014773,21.5097143 Z" id="Fill-2"></path>
        </g>
    </g>
</svg>