<?xml version="1.0" encoding="UTF-8"?>
<svg width="14px" height="14px" viewBox="0 0 14 14" version="1.1" xmlns="http://www.w3.org/2000/svg" xmlns:xlink="http://www.w3.org/1999/xlink">
    <!-- Generator: Sketch 52.1 (67048) - http://www.bohemiancoding.com/sketch -->
    <title>Icon_Edit_Dark_Teal</title>
    <desc>Created with Sketch.</desc>
    <g id="Icon_Edit_Dark_Teal" stroke="none" stroke-width="1" fill="none" fill-rule="evenodd">
        <path d="M13.2957669,1.53307187 C12.8099232,0.983389688 12.2788954,0.475364107 11.7082513,0.014321872 C11.162345,-0.099162503 10.9003607,0.490618747 10.5248919,0.766524997 C11.1577044,1.502275 11.8968294,2.1519625 12.5777357,2.84805625 C12.8865482,2.48018125 13.6180794,2.10344687 13.2957669,1.53307187 Z M12.9582669,4.3119625 C12.5254232,4.74607187 12.0778138,5.1692125 11.6601575,5.619775 C11.6491888,7.36000937 11.6643763,9.10024375 11.6546732,10.8421656 C11.6264304,11.5030358 11.1029244,12.0354704 10.4426263,12.0748844 C7.80281379,12.0858531 5.16215754,12.0858531 2.52065754,12.0748844 C1.79510563,12.0257226 1.24617774,11.398673 1.29342317,10.6729937 C1.29342317,8.153275 1.29342317,5.6349625 1.29342317,3.11805625 C1.25213563,2.39759106 1.79706291,1.7775014 2.51686067,1.72586875 C4.26553254,1.70266562 6.01504817,1.72586875 7.76245442,1.71363437 C8.21554817,1.30399375 8.63447004,0.855118747 9.07026692,0.423962497 C6.74151692,0.423962497 4.41572004,0.411728122 2.08739192,0.430712497 C0.964663119,0.47551253 0.061315335,1.36898166 0.00417316758,2.49115 C0.00164191758,5.42866562 -0.00679558242,8.36449375 0.0113450426,11.3015875 C0.0538371672,12.3788844 0.879911686,13.2620658 1.95197004,13.3763687 L11.1011732,13.3763687 C12.1224211,13.2061954 12.8890655,12.3505123 12.9464544,11.316775 C12.9764075,8.9829625 12.9532044,6.64619687 12.9574232,4.3119625 L12.9582669,4.3119625 Z M12.2600638,3.169525 C11.5749388,2.48018125 10.8858763,1.79449375 10.1928763,1.1124625 C8.67412629,2.6194 7.15537629,4.12211875 5.64506379,5.63707187 C6.32878254,6.32500937 7.01784504,7.00886875 7.71225129,7.68865 C9.22847004,6.184525 10.7444075,4.67815 12.2600638,3.169525 Z M4.52076692,8.79860312 C5.44889192,8.54547812 5.94586067,8.38643125 6.87525129,8.13668125 C7.12373567,8.05736875 7.28868879,8.01011875 7.41693879,7.95907187 C6.75923567,7.3325875 6.00281379,6.56013437 5.34637629,5.92816562 C5.06962629,6.88497812 4.79625129,7.84179062 4.52076692,8.79860312 Z" id="Path_201-2" fill="#FFF" fill-rule="nonzero"></path>
    </g>
</svg>
